<mxfile host="app.diagrams.net" agent="Mozilla/5.0 (Windows NT 10.0; Win64; x64) AppleWebKit/537.36 (KHTML, like Gecko) Chrome/136.0.0.0 Safari/537.36 Edg/136.0.0.0" version="27.0.3">
  <diagram name="Trang-1" id="cA-AyAm5m2RYpyPZep-R">
    <mxGraphModel dx="1227" dy="606" grid="1" gridSize="10" guides="1" tooltips="1" connect="1" arrows="1" fold="1" page="1" pageScale="1" pageWidth="827" pageHeight="1169" math="0" shadow="0">
      <root>
        <mxCell id="0" />
        <mxCell id="1" parent="0" />
        <mxCell id="idicaTzd7-hLhmRb6tk6-16" style="rounded=0;orthogonalLoop=1;jettySize=auto;html=1;exitX=0;exitY=0.5;exitDx=0;exitDy=0;" edge="1" parent="1" source="idicaTzd7-hLhmRb6tk6-6" target="idicaTzd7-hLhmRb6tk6-5">
          <mxGeometry relative="1" as="geometry" />
        </mxCell>
        <mxCell id="idicaTzd7-hLhmRb6tk6-6" value="Database" style="shape=cylinder;whiteSpace=wrap;html=1;" vertex="1" parent="1">
          <mxGeometry x="550" y="320" width="100" height="70" as="geometry" />
        </mxCell>
        <mxCell id="idicaTzd7-hLhmRb6tk6-1" value="Customers" style="shape=umlActor;verticalLabelPosition=bottom;verticalAlign=top;html=1;outlineConnect=0;" vertex="1" parent="1">
          <mxGeometry x="80" y="100" width="30" height="60" as="geometry" />
        </mxCell>
        <mxCell id="idicaTzd7-hLhmRb6tk6-2" value="Staff" style="shape=umlActor;verticalLabelPosition=bottom;verticalAlign=top;html=1;outlineConnect=0;" vertex="1" parent="1">
          <mxGeometry x="75" y="210" width="40" height="70" as="geometry" />
        </mxCell>
        <mxCell id="idicaTzd7-hLhmRb6tk6-7" style="edgeStyle=orthogonalEdgeStyle;rounded=0;orthogonalLoop=1;jettySize=auto;html=1;entryX=0;entryY=0.5;entryDx=0;entryDy=0;" edge="1" parent="1" source="idicaTzd7-hLhmRb6tk6-4" target="idicaTzd7-hLhmRb6tk6-5">
          <mxGeometry relative="1" as="geometry" />
        </mxCell>
        <mxCell id="idicaTzd7-hLhmRb6tk6-4" value="" style="strokeWidth=2;html=1;shape=mxgraph.flowchart.annotation_2;align=left;labelPosition=right;pointerEvents=1;rotation=-180;" vertex="1" parent="1">
          <mxGeometry x="115" y="150" width="50" height="100" as="geometry" />
        </mxCell>
        <mxCell id="idicaTzd7-hLhmRb6tk6-11" style="edgeStyle=orthogonalEdgeStyle;rounded=0;orthogonalLoop=1;jettySize=auto;html=1;" edge="1" parent="1" source="idicaTzd7-hLhmRb6tk6-5" target="idicaTzd7-hLhmRb6tk6-6">
          <mxGeometry relative="1" as="geometry" />
        </mxCell>
        <mxCell id="idicaTzd7-hLhmRb6tk6-23" style="edgeStyle=orthogonalEdgeStyle;rounded=0;orthogonalLoop=1;jettySize=auto;html=1;" edge="1" parent="1" source="idicaTzd7-hLhmRb6tk6-5">
          <mxGeometry relative="1" as="geometry">
            <mxPoint x="100" y="300" as="targetPoint" />
            <Array as="points">
              <mxPoint x="390" y="360" />
              <mxPoint x="101" y="360" />
            </Array>
          </mxGeometry>
        </mxCell>
        <mxCell id="idicaTzd7-hLhmRb6tk6-5" value="System" style="ellipse;whiteSpace=wrap;html=1;" vertex="1" parent="1">
          <mxGeometry x="330" y="160" width="120" height="80" as="geometry" />
        </mxCell>
        <mxCell id="idicaTzd7-hLhmRb6tk6-8" value="1" style="text;html=1;align=center;verticalAlign=middle;resizable=0;points=[];autosize=1;strokeColor=none;fillColor=none;" vertex="1" parent="1">
          <mxGeometry x="160" y="170" width="30" height="30" as="geometry" />
        </mxCell>
        <mxCell id="idicaTzd7-hLhmRb6tk6-9" value="Nhập mã đơn hàng" style="text;html=1;align=center;verticalAlign=middle;resizable=0;points=[];autosize=1;strokeColor=none;fillColor=none;" vertex="1" parent="1">
          <mxGeometry x="180" y="160" width="130" height="30" as="geometry" />
        </mxCell>
        <mxCell id="idicaTzd7-hLhmRb6tk6-10" value="" style="endArrow=classic;html=1;rounded=0;entryX=0.434;entryY=-0.013;entryDx=0;entryDy=0;entryPerimeter=0;" edge="1" parent="1" target="idicaTzd7-hLhmRb6tk6-9">
          <mxGeometry width="50" height="50" relative="1" as="geometry">
            <mxPoint x="200" y="160" as="sourcePoint" />
            <mxPoint x="250" y="110" as="targetPoint" />
          </mxGeometry>
        </mxCell>
        <mxCell id="idicaTzd7-hLhmRb6tk6-12" value="2" style="text;html=1;align=center;verticalAlign=middle;resizable=0;points=[];autosize=1;strokeColor=none;fillColor=none;" vertex="1" parent="1">
          <mxGeometry x="455" y="178" width="30" height="30" as="geometry" />
        </mxCell>
        <mxCell id="idicaTzd7-hLhmRb6tk6-13" value="Truy vấn đơn hàng" style="text;html=1;align=center;verticalAlign=middle;resizable=0;points=[];autosize=1;strokeColor=none;fillColor=none;" vertex="1" parent="1">
          <mxGeometry x="480" y="178" width="120" height="30" as="geometry" />
        </mxCell>
        <mxCell id="idicaTzd7-hLhmRb6tk6-14" value="" style="endArrow=classic;html=1;rounded=0;entryX=0.557;entryY=0.08;entryDx=0;entryDy=0;entryPerimeter=0;" edge="1" parent="1" target="idicaTzd7-hLhmRb6tk6-13">
          <mxGeometry width="50" height="50" relative="1" as="geometry">
            <mxPoint x="500" y="180" as="sourcePoint" />
            <mxPoint x="550" y="130" as="targetPoint" />
          </mxGeometry>
        </mxCell>
        <mxCell id="idicaTzd7-hLhmRb6tk6-15" value="" style="endArrow=classic;html=1;rounded=0;" edge="1" parent="1">
          <mxGeometry width="50" height="50" relative="1" as="geometry">
            <mxPoint x="610" y="240" as="sourcePoint" />
            <mxPoint x="610" y="280" as="targetPoint" />
          </mxGeometry>
        </mxCell>
        <mxCell id="idicaTzd7-hLhmRb6tk6-17" value="3&amp;nbsp;" style="text;html=1;align=center;verticalAlign=middle;resizable=0;points=[];autosize=1;strokeColor=none;fillColor=none;" vertex="1" parent="1">
          <mxGeometry x="525" y="320" width="30" height="30" as="geometry" />
        </mxCell>
        <mxCell id="idicaTzd7-hLhmRb6tk6-18" value="Trả thông tin" style="text;html=1;align=center;verticalAlign=middle;resizable=0;points=[];autosize=1;strokeColor=none;fillColor=none;" vertex="1" parent="1">
          <mxGeometry x="455" y="240" width="90" height="30" as="geometry" />
        </mxCell>
        <mxCell id="idicaTzd7-hLhmRb6tk6-19" value="" style="endArrow=classic;html=1;rounded=0;" edge="1" parent="1">
          <mxGeometry width="50" height="50" relative="1" as="geometry">
            <mxPoint x="510" y="330" as="sourcePoint" />
            <mxPoint x="480" y="300" as="targetPoint" />
          </mxGeometry>
        </mxCell>
        <mxCell id="idicaTzd7-hLhmRb6tk6-20" style="edgeStyle=orthogonalEdgeStyle;rounded=0;orthogonalLoop=1;jettySize=auto;html=1;entryX=0.5;entryY=0;entryDx=0;entryDy=0;entryPerimeter=0;" edge="1" parent="1" source="idicaTzd7-hLhmRb6tk6-5" target="idicaTzd7-hLhmRb6tk6-1">
          <mxGeometry relative="1" as="geometry">
            <Array as="points">
              <mxPoint x="390" y="80" />
              <mxPoint x="95" y="80" />
            </Array>
          </mxGeometry>
        </mxCell>
        <mxCell id="idicaTzd7-hLhmRb6tk6-21" value="4" style="text;html=1;align=center;verticalAlign=middle;resizable=0;points=[];autosize=1;strokeColor=none;fillColor=none;" vertex="1" parent="1">
          <mxGeometry x="350" y="130" width="30" height="30" as="geometry" />
        </mxCell>
        <mxCell id="idicaTzd7-hLhmRb6tk6-22" value="Hiện thị chi tiết đơn hàng" style="text;html=1;align=center;verticalAlign=middle;resizable=0;points=[];autosize=1;strokeColor=none;fillColor=none;" vertex="1" parent="1">
          <mxGeometry x="150" y="50" width="160" height="30" as="geometry" />
        </mxCell>
        <mxCell id="idicaTzd7-hLhmRb6tk6-24" value="Hiện thị chi tiết đơn hàng" style="text;html=1;align=center;verticalAlign=middle;resizable=0;points=[];autosize=1;strokeColor=none;fillColor=none;" vertex="1" parent="1">
          <mxGeometry x="160" y="330" width="160" height="30" as="geometry" />
        </mxCell>
        <mxCell id="idicaTzd7-hLhmRb6tk6-26" value="" style="endArrow=classic;html=1;rounded=0;" edge="1" parent="1">
          <mxGeometry width="50" height="50" relative="1" as="geometry">
            <mxPoint x="377" y="290" as="sourcePoint" />
            <mxPoint x="377" y="340" as="targetPoint" />
          </mxGeometry>
        </mxCell>
        <mxCell id="idicaTzd7-hLhmRb6tk6-27" value="" style="endArrow=classic;html=1;rounded=0;" edge="1" parent="1">
          <mxGeometry width="50" height="50" relative="1" as="geometry">
            <mxPoint x="250" y="332" as="sourcePoint" />
            <mxPoint x="200" y="332" as="targetPoint" />
          </mxGeometry>
        </mxCell>
        <mxCell id="idicaTzd7-hLhmRb6tk6-28" value="" style="endArrow=classic;html=1;rounded=0;" edge="1" parent="1">
          <mxGeometry width="50" height="50" relative="1" as="geometry">
            <mxPoint x="380" y="150" as="sourcePoint" />
            <mxPoint x="380" y="110" as="targetPoint" />
          </mxGeometry>
        </mxCell>
        <mxCell id="idicaTzd7-hLhmRb6tk6-29" value="" style="endArrow=classic;html=1;rounded=0;entryX=0.255;entryY=0.02;entryDx=0;entryDy=0;entryPerimeter=0;" edge="1" parent="1" target="idicaTzd7-hLhmRb6tk6-22">
          <mxGeometry width="50" height="50" relative="1" as="geometry">
            <mxPoint x="240" y="50" as="sourcePoint" />
            <mxPoint x="290" as="targetPoint" />
          </mxGeometry>
        </mxCell>
      </root>
    </mxGraphModel>
  </diagram>
</mxfile>
